HIERARCHY
ROOT hips
{
  OFFSET 0 10.6860622 2.3727825e-15
  CHANNELS 6 Xposition Yposition Zposition Yrotation Xrotation Zrotation
  JOINT leftUpperLeg
  {
    OFFSET 0.6642549969 -0.9402397400000004 0
    CHANNELS 3 Yrotation Xrotation Zrotation
    JOINT leftLowerLeg
    {
      OFFSET 0 -3.997221335632195 0
      CHANNELS 3 Yrotation Xrotation Zrotation
      JOINT leftFoot
      {
        OFFSET -0.13777839790000004 -4.6145792000000005 -0.22186036399999998
        CHANNELS 3 Yrotation Xrotation Zrotation
        JOINT leftToes
        {
          OFFSET -0.03777410834999995 -0.9130806927000008 0.85230013
          CHANNELS 3 Yrotation Xrotation Zrotation
          End Site
          {
            OFFSET -0.03777410834999995 -0.9130806927000008 0.85230013
          }
        }
      }
    }
  }
  JOINT rightUpperLeg
  {
    OFFSET -0.6642778626 -0.9402397400000004 0
    CHANNELS 3 Yrotation Xrotation Zrotation
    JOINT rightLowerLeg
    {
      OFFSET 0 -3.997221452859387 0
      CHANNELS 3 Yrotation Xrotation Zrotation
      JOINT rightFoot
      {
        OFFSET 0.1377926176 -4.6145792000000005 -0.22185782299999995
        CHANNELS 3 Yrotation Xrotation Zrotation
        JOINT rightToes
        {
          OFFSET 0.037780746850000047 -0.9130806927000008 0.85230167
          CHANNELS 3 Yrotation Xrotation Zrotation
          End Site
          {
            OFFSET 0.037780746850000047 -0.9130806927000008 0.85230167
          }
        }
      }
    }
  }
  JOINT spine
  {
    OFFSET 0 0.13988381660000015 0
    CHANNELS 3 Yrotation Xrotation Zrotation
    JOINT chest
    {
      OFFSET 0 0.6191039003973773 0
      CHANNELS 3 Yrotation Xrotation Zrotation
      JOINT upperChest
      {
        OFFSET 0 0.9855186130586943 0
        CHANNELS 3 Yrotation Xrotation Zrotation
        JOINT leftShoulder
        {
          OFFSET 0.1807663869 1.5087829790000005 0
          CHANNELS 3 Yrotation Xrotation Zrotation
          JOINT leftUpperArm
          {
            OFFSET 0.5985063006419806 0 0
            CHANNELS 3 Yrotation Xrotation Zrotation
            JOINT leftLowerArm
            {
              OFFSET 2.2993332369501065 0 0
              CHANNELS 3 Yrotation Xrotation Zrotation
              JOINT leftHand
              {
                OFFSET 2.395047042602395 0 0
                CHANNELS 3 Yrotation Xrotation Zrotation
                JOINT leftIndexProximal
                {
                  OFFSET 0.5766295810000004 0.04556643899499946 0.17265095988184
                  CHANNELS 3 Yrotation Xrotation Zrotation
                  JOINT leftIndexIntermediate
                  {
                    OFFSET 0.2957229000000008 -0.019352197700001517 -0.007932640616999987
                    CHANNELS 3 Yrotation Xrotation Zrotation
                    JOINT leftIndexDistal
                    {
                      OFFSET 0.19008243099999922 -0.012484908149998475 -0.002786250786000012
                      CHANNELS 3 Yrotation Xrotation Zrotation
                      End Site
                      {
                        OFFSET 0.19008243099999922 -0.012484908149998475 -0.002786250786000012
                      }
                    }
                  }
                }
                JOINT leftMiddleProximal
                {
                  OFFSET 0.5834975091000001 0.0524350405149987 0.02204081888183999
                  CHANNELS 3 Yrotation Xrotation Zrotation
                  JOINT leftMiddleIntermediate
                  {
                    OFFSET 0.33880573540000003 -0.019871473270000717 -0.00000971183179999946
                    CHANNELS 3 Yrotation Xrotation Zrotation
                    JOINT leftMiddleDistal
                    {
                      OFFSET 0.20676022730000088 -0.012221336379999448 0.0001471936708000235
                      CHANNELS 3 Yrotation Xrotation Zrotation
                      End Site
                      {
                        OFFSET 0.20676022730000088 -0.012221336379999448 0.0001471936708000235
                      }
                    }
                  }
                }
                JOINT leftLittleProximal
                {
                  OFFSET 0.5344154683999995 -0.012880921405001189 -0.24414037221816004
                  CHANNELS 3 Yrotation Xrotation Zrotation
                  JOINT leftLittleIntermediate
                  {
                    OFFSET 0.21758961730000093 -0.011650919939999227 0.011893592810000034
                    CHANNELS 3 Yrotation Xrotation Zrotation
                    JOINT leftLittleDistal
                    {
                      OFFSET 0.1475273964999999 -0.008152365682999818 0.006001092492999946
                      CHANNELS 3 Yrotation Xrotation Zrotation
                      End Site
                      {
                        OFFSET 0.1475273964999999 -0.008152365682999818 0.006001092492999946
                      }
                    }
                  }
                }
                JOINT leftRingProximal
                {
                  OFFSET 0.5799399463000003 0.026911854694997794 -0.12150566991816003
                  CHANNELS 3 Yrotation Xrotation Zrotation
                  JOINT leftRingIntermediate
                  {
                    OFFSET 0.26167887460000006 -0.013480186499999602 0.010996293000000053
                    CHANNELS 3 Yrotation Xrotation Zrotation
                    JOINT leftRingDistal
                    {
                      OFFSET 0.17667108799999987 -0.008990287899999228 0.0055541023999999065
                      CHANNELS 3 Yrotation Xrotation Zrotation
                      End Site
                      {
                        OFFSET 0.17667108799999987 -0.008990287899999228 0.0055541023999999065
                      }
                    }
                  }
                }
                JOINT leftThumbProximal
                {
                  OFFSET 0.11018806699999972 -0.09448718900500053 0.17047963138184
                  CHANNELS 3 Yrotation Xrotation Zrotation
                  JOINT leftThumbIntermediate
                  {
                    OFFSET 0.31062601459999983 -0.08126270900000132 0.15443142000000007
                    CHANNELS 3 Yrotation Xrotation Zrotation
                    JOINT leftThumbDistal
                    {
                      OFFSET 0.21627175790000086 -0.08833193599999878 0.018771167799999988
                      CHANNELS 3 Yrotation Xrotation Zrotation
                      End Site
                      {
                        OFFSET 0.21627175790000086 -0.08833193599999878 0.018771167799999988
                      }
                    }
                  }
                }
              }
            }
          }
        }
        JOINT neck
        {
          OFFSET 0 1.5463305265074576 0
          CHANNELS 3 Yrotation Xrotation Zrotation
          JOINT head
          {
            OFFSET 0 0.8456443600000344 0
            CHANNELS 3 Yrotation Xrotation Zrotation
            JOINT leftEye
            {
              OFFSET 0.30408573140000006 0.5104519199999995 0.1276382305
              CHANNELS 3 Yrotation Xrotation Zrotation
              End Site
              {
                OFFSET 0.30408573140000006 0.5104519199999995 0.1276382305
              }
            }
            JOINT rightEye
            {
              OFFSET -0.30409491089999996 0.5104519199999995 0.1276379445
              CHANNELS 3 Yrotation Xrotation Zrotation
              End Site
              {
                OFFSET -0.30409491089999996 0.5104519199999995 0.1276379445
              }
            }
            JOINT jaw
            {
              OFFSET -3.155239131000001e-7 -0.11984121820000082 0.60178107
              CHANNELS 3 Yrotation Xrotation Zrotation
              End Site
              {
                OFFSET -3.155239131000001e-7 -0.11984121820000082 0.60178107
              }
            }
          }
        }
        JOINT rightShoulder
        {
          OFFSET -0.1807303465 1.5087829790000005 0
          CHANNELS 3 Yrotation Xrotation Zrotation
          JOINT rightUpperArm
          {
            OFFSET -0.5985063796536958 0 0
            CHANNELS 3 Yrotation Xrotation Zrotation
            JOINT rightLowerArm
            {
              OFFSET -2.2993322059002854 0 0
              CHANNELS 3 Yrotation Xrotation Zrotation
              JOINT rightHand
              {
                OFFSET -2.395045314457259 0 0
                CHANNELS 3 Yrotation Xrotation Zrotation
                JOINT rightIndexProximal
                {
                  OFFSET -0.5764487688300002 0.0441371204405987 0.17361932004999997
                  CHANNELS 3 Yrotation Xrotation Zrotation
                  JOINT rightIndexIntermediate
                  {
                    OFFSET -0.29573011380000047 -0.01934826376999843 -0.007698921482999974
                    CHANNELS 3 Yrotation Xrotation Zrotation
                    JOINT rightIndexDistal
                    {
                      OFFSET -0.19008373999999884 -0.012503266380000655 -0.0026365778999999897
                      CHANNELS 3 Yrotation Xrotation Zrotation
                      End Site
                      {
                        OFFSET -0.19008373999999884 -0.012503266380000655 -0.0026365778999999897
                      }
                    }
                  }
                }
                JOINT rightMiddleProximal
                {
                  OFFSET -0.5834852037300005 0.05211639405060153 0.02307162440000001
                  CHANNELS 3 Yrotation Xrotation Zrotation
                  JOINT rightMiddleIntermediate
                  {
                    OFFSET -0.33880114510000003 -0.019952774050000954 0.0002455003561999819
                    CHANNELS 3 Yrotation Xrotation Zrotation
                    JOINT rightMiddleDistal
                    {
                      OFFSET -0.20675694929999955 -0.012273788999999091 0.00030209124000002766
                      CHANNELS 3 Yrotation Xrotation Zrotation
                      End Site
                      {
                        OFFSET -0.20675694929999955 -0.012273788999999091 0.00030209124000002766
                      }
                    }
                  }
                }
                JOINT rightLittleProximal
                {
                  OFFSET -0.5346811737299992 -0.011214256288399227 -0.24363941305000003
                  CHANNELS 3 Yrotation Xrotation Zrotation
                  JOINT rightLittleIntermediate
                  {
                    OFFSET -0.21757715980000092 -0.011771559690000988 0.01201554387
                    CHANNELS 3 Yrotation Xrotation Zrotation
                    JOINT rightLittleDistal
                    {
                      OFFSET -0.1475201849000004 -0.00822055339600003 0.006082065407000015
                      CHANNELS 3 Yrotation Xrotation Zrotation
                      End Site
                      {
                        OFFSET -0.1475201849000004 -0.00822055339600003 0.006082065407000015
                      }
                    }
                  }
                }
                JOINT rightRingProximal
                {
                  OFFSET -0.5800810755299999 0.027657985680600072 -0.12066365025000003
                  CHANNELS 3 Yrotation Xrotation Zrotation
                  JOINT rightRingIntermediate
                  {
                    OFFSET -0.26166445029999974 -0.013623118409999302 0.011164098990000045
                    CHANNELS 3 Yrotation Xrotation Zrotation
                    JOINT rightRingDistal
                    {
                      OFFSET -0.17666387530000027 -0.009072900100000503 0.005668185599999959
                      CHANNELS 3 Yrotation Xrotation Zrotation
                      End Site
                      {
                        OFFSET -0.17666387530000027 -0.009072900100000503 0.005668185599999959
                      }
                    }
                  }
                }
                JOINT rightThumbProximal
                {
                  OFFSET -0.10997596379000074 -0.09577489355940072 0.16989765924999997
                  CHANNELS 3 Yrotation Xrotation Zrotation
                  JOINT rightThumbIntermediate
                  {
                    OFFSET -0.31036620999999986 -0.08229339117999834 0.15440884469999996
                    CHANNELS 3 Yrotation Xrotation Zrotation
                    JOINT rightThumbDistal
                    {
                      OFFSET -0.21631306399999906 -0.08825326400000111 0.018656797720000014
                      CHANNELS 3 Yrotation Xrotation Zrotation
                      End Site
                      {
                        OFFSET -0.21631306399999906 -0.08825326400000111 0.018656797720000014
                      }
                    }
                  }
                }
              }
            }
          }
        }
      }
    }
  }
}
MOTION
Frames: 8
Frame Time: 0.03333333333333333
0 11.682712981546562 0 0 0 0 0 0 -5.826343164929014 -0.3712483961610101 -3.6333298826370974 5.838118207697276 0 0 0 0 0 0 0 0 5.826343164929014 0.3712483961610101 -3.6333298826370974 -5.838118207697276 0 0 0 0 0 0 0 -4.610651315171937 0 0 3.0831277533083026 0 0 0 0 0 1.5275236235667615 0 0 0 0 0 0 0 0 0 0 0 0 0 0 0 0 0 0 0 0 0 0 0 0 0 0 0 0 0 0 0 0 0 0 0 0 0 0 0 0 0 0 0 0 0 0 0 0 0 0 0 0 0 0 0 0 1.5275236235667615 0 0 0 0 0 0 0 0 0 0 0 0 0 0 1.5275236235667615 0 0 0 0 0 0 0 0 0 0 0 0 0 0 0 0 0 0 0 0 0 0 0 0 0 0 0 0 0 0 0 0 0 0 0 0 0 0 0 0 0 0 0 0 0 0 0 0 0 0 0 0 0 0 0
0.1346301259557403 -6.366404239361219 0.5699656107214525 -180 -14.000618058575599 -1.7495425884583234e-15 75.78408339420001 -81.66579274696285 -35.68775368363516 161.165616165765 78.15819567089838 164.92082092490642 -1.270557229566784 -16.191144835138317 -3.626257670497897 0 0 0 -76.19420422427454 -81.61210401073876 35.99386577104112 -161.17260367256364 78.157030792011 -164.95002127161592 1.336419156510396 -16.209484715138842 3.5319521622155854 0 0 0 -1.529966850161574 54.64506523456628 -2.80117358901897 -0.51847329189386 35.35475887356962 -1.3191782767382194 0 0 0 -15.172572076827436 -19.91879386781296 -5.679345996693998 -74.64765377639159 -17.18213018409533 -28.262932763699446 0.15159477619666434 -12.918788613837053 11.760298576436542 -4.4969843172908925 14.15917699531157 43.366654590755715 0 0 0 0 0 0 0 0 0 0 0 0 0 0 0 0 0 0 0 0 0 0 0 0 0 0 0 0 0 0 0 0 0 0 0 0 0 0 0 0 0 0 0 0 0 0 1.2320206218624892 0 -0.0016120520414317694 -0.5647767844719045 0.3269868950052463 0 0 0 0 0 0 0 0 0 13.276518439079195 -19.41383676088262 4.903648237950967 75.70591380597163 -17.684737192370896 28.446460886545534 0.28314015834322226 -12.865386156913853 -11.58592084501604 5.120654163372452 12.009771370051606 -38.29764341545597 0 0 0 0 0 0 0 0 0 0 0 0 0 0 0 0 0 0 0 0 0 0 0 0 0 0 0 0 0 0 0 0 0 0 0 0 0 0 0 0 0 0 0 0 0
0.1346301259557403 -6.443529442443733 0.5699656107214525 -180 -13.22422721532336 -1.6488848965373868e-15 86.66872928252117 -82.35768620763459 -46.623166153415916 161.95949186869447 77.52210929186941 165.70923256890524 -1.2076392757107735 -15.91922225265085 -3.4256281273956377 0 0 0 -87.01041916211389 -82.29856783710797 46.86616728666545 -161.96392338518348 77.52089228651515 -165.73466918709798 1.269611931604736 -15.93649113715824 3.336769720443866 0 0 0 -1.4690775662484743 52.94092489429012 -2.72560484733784 -0.5136172975770528 34.5785772578626 -1.3105850197366062 0 0 0 -15.054427842567831 -18.892439662884026 -5.985085372028999 -74.64765644632482 -17.182126609467062 -28.2629310710469 0.15159457089762648 -12.918790365728341 11.760298576436542 -4.224231413029871 14.039364782933045 42.94244595965317 0 0 0 0 0 0 0 0 0 0 0 0 0 0 0 0 0 0 0 0 0 0 0 0 0 0 0 0 0 0 0 0 0 0 0 0 0 0 0 0 0 0 0 0 0 0 1.2327605878925907 0 0.12840093003096284 -1.0986303580295134 0.6241806786954608 0 0 0 0 0 0 0 0 0 13.26230972983845 -18.41084415072039 5.236494746908768 75.70591380597163 -17.684737192370896 28.446460886545534 0.28314015834322226 -12.865386156913853 -11.58592084501604 4.879110818196216 12.008343343610193 -37.81104883298014 0 0 0 0 0 0 0 0 0 0 0 0 0 0 0 0 0 0 0 0 0 0 0 0 0 0 0 0 0 0 0 0 0 0 0 0 0 0 0 0 0 0 0 0 0
0.1346301259557403 -6.520653840349433 0.5699656107214525 -180 -12.447483022784953 -1.5488208391658086e-15 99.21196304844185 -82.72751128672448 -59.217294135765904 162.67713771547255 76.88358366589223 166.42140433527757 -1.1438063910559597 -15.64746865564903 -3.224926224196845 0 0 0 -99.44755982289344 -82.66516127098663 59.35956226077819 -162.6793250882298 76.88231960248541 -166.44338995563393 1.2019208054949997 -15.663673397906807 3.141490267942452 0 0 0 -1.4138706737616513 51.23057263347994 -2.6555158675718458 -0.5089434684099537 33.80183006322252 -1.302146016071338 0 0 0 -14.9425898969093 -17.864071125132053 -6.287203383510935 -74.64765377639159 -17.18213018409533 -28.262932763699446 0.15159477619666434 -12.918788613837053 11.760298576436542 -3.9506069075293206 13.921467641101353 42.517699315486695 0 0 0 0 0 0 0 0 0 0 0 0 0 0 0 0 0 0 0 0 0 0 0 0 0 0 0 0 0 0 0 0 0 0 0 0 0 0 0 0 0 0 0 0 0 0 1.2335016215927643 0 0.25599658559901683 -1.63453591946545 0.9209931516623944 0 0 0 0 0 0 0 0 0 13.25428634204466 -17.40642250801053 5.567656417961259 75.70591380597163 -17.684746153593085 28.44646416982503 0.28314015834322226 -12.865386156913853 -11.58592084501604 4.637466039445744 12.008921187138451 -37.32423175575793 0 0 0 0 0 0 0 0 0 0 0 0 0 0 0 0 0 0 0 0 0 0 0 0 0 0 0 0 0 0 0 0 0 0 0 0 0 0 0 0 0 0 0 0 0
0.1346301259557403 -6.597778775039676 0.5699656107214525 -180 -11.670239644730225 -1.4492901353031635e-15 112.43489782470384 -82.72211768425458 -72.49128763968505 163.3289160335272 76.24289368445926 167.06770027231485 -1.0790631594648599 -15.375893202999046 -3.02414634199452 0 0 0 -112.54843995500808 -82.65994688963164 72.51684726919761 -163.32909126135638 76.24162998915043 -167.08646384106353 1.1333442851081443 -15.391040554459444 2.946110009334269 0 0 0 -1.363690384188071 49.514751498181695 -2.5902488877485075 -0.5044436078541733 33.02456701606861 -1.2938491026830983 0 0 0 -14.836917686775532 -16.83390574908995 -6.585895923809127 -74.64766851107407 -17.182135546037866 -28.262923199858964 0.15159457089762648 -12.918790365728341 11.760298576436542 -3.6761305371197377 13.8055032299194 42.09245053372215 0 0 0 0 0 0 0 0 0 0 0 0 0 0 0 0 0 0 0 0 0 0 0 0 0 0 0 0 0 0 0 0 0 0 0 0 0 0 0 0 0 0 0 0 0 0 1.2342426554993036 0 0.38116489835769796 -2.1724536385288515 1.217451011356965 0 0 0 0 0 0 0 0 0 13.252354576254938 -16.400768565642956 5.897305854911808 75.70591380597163 -17.684737192370896 28.446460886545534 0.283140404647378 -12.865386156913853 -11.585922406470763 4.395743041638653 12.01151189662503 -36.83726153034304 0 0 0 0 0 0 0 0 0 0 0 0 0 0 0 0 0 0 0 0 0 0 0 0 0 0 0 0 0 0 0 0 0 0 0 0 0 0 0 0 0 0 0 0 0
0.1346301259557403 -6.674903441337647 0.5699656107214525 -180 -10.892565023179355 -1.3502609756831145e-15 125.00924844237113 -82.33916780591416 -85.11683328149924 163.9233169549074 75.60038577101825 167.65660645870946 -1.0134106112882408 -15.104513864632382 -2.823286133817874 0 0 0 -125.0181130086132 -82.28062261164519 85.04309167240027 -163.92178790855414 75.59906749068227 -167.67245235511982 1.0638872385098537 -15.118605170543253 2.7506212311472114 0 0 0 -1.3179791021819802 47.79423126146372 -2.5292425817387056 -0.5001144695743369 32.246886736969834 -1.2856939716208757 0 0 0 -14.73728304869094 -15.802148985206744 -6.881353206122035 -74.6476503293205 -17.182128396781188 -28.2629390606492 0.1515949814957022 -12.918787737891414 11.760298576436542 -3.4008293765108233 13.691491906456706 41.66671759437222 0 0 0 0 0 0 0 0 0 0 0 0 0 0 0 0 0 0 0 0 0 0 0 0 0 0 0 0 0 0 0 0 0 0 0 0 0 0 0 0 0 0 0 0 0 0 1.2349826221473137 0 0.50389528464991 -2.7123442691938258 1.5135805491076169 0 0 0 0 0 0 0 0 0 13.256443871545574 -15.394092118505206 6.225610848676194 75.70591380597163 -17.684737192370896 28.446460886545534 0.283139747836296 -12.865385281155062 -11.585919987101175 4.153973118806282 12.016112038570723 -36.35012975444334 0 0 0 0 0 0 0 0 0 0 0 0 0 0 0 0 0 0 0 0 0 0 0 0 0 0 0 0 0 0 0 0 0 0 0 0 0 0 0 0 0 0 0 0 0
0.1346301259557403 -6.752028376027892 0.5699658791137237 -180 -10.11452980786829 -1.2517022631109292e-15 135.9414883535473 -81.62806214879525 -96.10041891219201 164.4675726156235 74.95626537241793 168.19535911273366 -0.9468498571946183 -14.8333238062517 -2.622338182071848 0 0 0 -135.88395455209633 -81.57531139436018 95.96566917243157 -164.46446795853691 74.95496284152108 -168.20841609553617 0.9935494729177308 -14.846374463934048 2.555021670507799 0 0 0 -1.276264677210765 46.06975499098799 -2.4720177114438613 -0.49594822441491626 31.468830686456247 -1.2776704948867654 0 0 0 -14.643562329403874 -14.769014697406508 -7.173759226382064 -74.64765377639159 -17.18213018409533 -28.262932763699446 0.15159477619666434 -12.918788613837053 11.760298576436542 -3.124727551336225 13.579433882096307 41.24050926540901 0 0 0 0 0 0 0 0 0 0 0 0 0 0 0 0 0 0 0 0 0 0 0 0 0 0 0 0 0 0 0 0 0 0 0 0 0 0 0 0 0 0 0 0 0 0 1.2357236564666592 0 0.6241773571155397 -3.2541711515187686 1.8094098981291482 0 0 0 0 0 0 0 0 0 13.266478447277274 -14.386582881842536 6.552740428193345 75.70591382259896 -17.684733607882144 28.446460886545534 0.283139747836296 -12.865385281155062 -11.585919987101175 3.912180298764367 12.022725207700367 -35.86289357978578 0 0 0 0 0 0 0 0 0 0 0 0 0 0 0 0 0 0 0 0 0 0 0 0 0 0 0 0 0 0 0 0 0 0 0 0 0 0 0 0 0 0 0 0 0
0.1346301259557403 -6.8291527739335915 0.5699658791137237 -180 -9.33620487619448 -1.1535834495797936e-15 144.9066062023309 -80.66196429225585 -105.11701685823634 164.96770031718785 74.31073888333168 168.68997542288434 -0.8793846778385391 -14.562344474133258 -2.4213000792411496 0 0 0 -144.81824611624796 -80.6157736898313 104.95684476796161 -164.96323877114145 74.30945079183829 -168.70045778298402 0.9223344145534875 -14.574355635810727 2.359305478234321 0 0 0 -1.238137869640994 44.34210607437514 -2.4181638181134404 -0.4919422540541752 30.69050482905893 -1.2697775219165732 0 0 0 -14.555636958903891 -13.734705469982863 -7.463289537666093 -74.64765377639159 -17.18213018409533 -28.262932763699446 0.15159477619666434 -12.918788613837053 11.760298576436542 -2.847849565836208 13.46935843320037 40.81387340246602 0 0 0 0 0 0 0 0 0 0 0 0 0 0 0 0 0 0 0 0 0 0 0 0 0 0 0 0 0 0 0 0 0 0 0 0 0 0 0 0 0 0 0 0 0 0 1.2364636235271282 0 0.7419970682528195 -3.7978898134253263 2.104966312104844 0 0 0 0 0 0 0 0 0 13.28239413792393 -13.378453758640154 6.878854460440801 75.70591380597163 -17.684737192370896 28.446460886545534 0.28314015834322226 -12.865386156913853 -11.58592084501604 3.6703986126613253 12.031350679579198 -35.37556968811674 0 0 0 0 0 0 0 0 0 0 0 0 0 0 0 0 0 0 0 0 0 0 0 0 0 0 0 0 0 0 0 0 0 0 0 0 0 0 0 0 0 0 0 0 0
